# xmcd CD database file
#
# Track frame offsets:
#	150
#	13307
#	26445
#	41185
#	57527
#	68060
#	83097
#	100430
#	114675
#	131950
#	147420
#	164187
#	184300
#	203992
#
# Disc length: 3010 seconds
#
# Revision: 1
# Processed by: cddbd v1.5.2PL0 Copyright (c) Steve Scherf et al.
# Submitted via: CDex 1.70beta2
#
DISCID=df0bc00e
DTITLE=Etta Jones - Lonely and Blue
DYEAR=1992
DGENRE=Vocal
TTITLE0=I'll Be There
TTITLE1=In the Dark
TTITLE2=Out in the Cold Again
TTITLE3=I'm Pulling Through
TTITLE4=My Gentleman Friend
TTITLE5=I Wonder
TTITLE6=You Don't Know My Mind
TTITLE7=Gee Baby, Ain't I Good to You
TTITLE8=Good for Nothing Joe
TTITLE9=I Miss You So
TTITLE10=Travlin' Light
TTITLE11=But Not For Me
TTITLE12=If You're But a Dream
TTITLE13=Cool Cool Daddy
EXTD=YEAR: 1992
EXTT0=
EXTT1=
EXTT2=
EXTT3=
EXTT4=
EXTT5=
EXTT6=
EXTT7=
EXTT8=
EXTT9=
EXTT10=
EXTT11=
EXTT12=
EXTT13=
PLAYORDER=
